<svg viewBox="0 0 36 36" fill="none" xmlns="http://www.w3.org/2000/svg">
  <path d="M18 5C18 5 8 9.5 8 19C8 24 11 28 15 30C15 30 14 25 17 22C17.8 21.2 18 21 18 21"
        stroke="#4ec9b0" stroke-width="2.2" stroke-linecap="round" stroke-linejoin="round"/>
  <path d="M18 5C18 5 28 9.5 28 19C28 24 25 28 21 30C21 30 22 25 19 22C18.2 21.2 18 21 18 21"
        stroke="#4ec9b0" stroke-width="2.2" stroke-linecap="round" stroke-linejoin="round"/>
  <circle cx="18" cy="21" r="2.5" fill="#4ec9b0"/>
  <path d="M12 16C12 16 14.5 14 18 14C21.5 14 24 16 24 16"
        stroke="#6db8c8" stroke-width="1.6" stroke-linecap="round"/>
</svg>
